<svg width="27" height="26" viewBox="0 0 27 26" fill="none" xmlns="http://www.w3.org/2000/svg">
<path d="M12.7734 0.219727L11.6016 1.33301C11.3086 1.62598 11.3086 2.09473 11.6016 2.3291L20.6836 11.4111H0.703125C0.292969 11.4111 0 11.7627 0 12.1143V13.7549C0 14.165 0.292969 14.458 0.703125 14.458H20.6836L11.6016 23.5986C11.3086 23.833 11.3086 24.3018 11.6016 24.5947L12.7734 25.708C13.0078 26.001 13.4766 26.001 13.7695 25.708L26.0156 13.4619C26.3086 13.1689 26.3086 12.7588 26.0156 12.4658L13.7695 0.219727C13.4766 -0.0732422 13.0078 -0.0732422 12.7734 0.219727Z" fill="#9F4197"/>
</svg>
