<?xml version="1.0" encoding="UTF-8" standalone="no"?><!DOCTYPE svg PUBLIC "-//W3C//DTD SVG 1.1//EN" "http://www.w3.org/Graphics/SVG/1.1/DTD/svg11.dtd"><svg width="100%" height="100%" viewBox="0 0 532 1861" version="1.1" xmlns="http://www.w3.org/2000/svg" xmlns:xlink="http://www.w3.org/1999/xlink" xml:space="preserve" xmlns:serif="http://www.serif.com/" style="fill-rule:evenodd;clip-rule:evenodd;"><clipPath id="_clip1"><rect x="0.613" y="0.742" width="530.775" height="1859.36"/></clipPath><g clip-path="url(#_clip1)"><g id="Observatory"><path d="M229.134,45.304l0,86.502c0,2.305 1.896,4.201 4.201,4.201c2.304,0 4.201,-1.896 4.201,-4.201l0,-86.502c0,-2.304 -1.897,-4.201 -4.201,-4.201c-2.305,0 -4.201,1.897 -4.201,4.201Z" style="fill:#19ac84;fill-rule:nonzero;"/><circle cx="233.402" cy="45.304" r="10.72" style="fill:#19ac84;"/><path d="M258.976,12.572l0,119.234c0,2.305 1.897,4.201 4.201,4.201c2.305,0 4.201,-1.896 4.201,-4.201l0,-119.234c0,-2.305 -1.896,-4.201 -4.201,-4.201c-2.304,0 -4.201,1.896 -4.201,4.201Z" style="fill:#19ac84;fill-rule:nonzero;"/><circle cx="263.177" cy="12.303" r="10.72" style="fill:#19ac84;"/><g><clipPath id="_clip2"><path d="M219.052,127.034l58.878,0c52.063,0 94.904,42.841 94.904,94.904l0,54.374l-249.122,0l0,-53.971c0,0 0,0 0,0c0,-52.284 43.023,-95.307 95.307,-95.307c0.011,0 0.022,0 0.033,0Z"/></clipPath><g clip-path="url(#_clip2)"><ellipse cx="266" cy="211.587" rx="264.547" ry="202.947" style="fill:#fff;stroke:#273a79;stroke-width:3.36px;"/><circle cx="375.354" cy="277.791" r="107.103" style="fill:#19ac84;"/><path d="M450.128,261.963c-0.941,54.24 -34.312,103.876 -86.032,122.225c-14.055,5.039 -28.876,7.615 -43.807,7.615c-71.218,0 -129.821,-58.603 -129.821,-129.821c0,-23.528 6.397,-46.62 18.502,-66.795c28.558,-47.036 83.831,-71.303 137.786,-60.491c60.289,12.435 102.296,66.305 103.372,127.099c0,2.304 1.896,4.2 4.201,4.2c2.304,0 4.2,-1.896 4.2,-4.2c-0.035,-75.784 -62.404,-138.125 -138.188,-138.125c-42.009,0 -81.806,19.157 -108.01,51.992c-19.597,24.498 -30.28,54.953 -30.28,86.325c0,75.807 62.38,138.188 138.188,138.188c8.124,0 16.233,-0.717 24.231,-2.141c65.969,-11.594 112.85,-69.935 113.992,-136.071c-0.266,-2.089 -2.062,-3.671 -4.167,-3.671c-2.105,0 -3.901,1.582 -4.167,3.671Z" style="fill:#19ac84;fill-rule:nonzero;"/><path d="M416.119,262.87c-0.941,54.24 -34.279,103.876 -86.032,122.225c-14.036,5.023 -28.832,7.591 -43.739,7.591c-71.218,0 -129.821,-58.603 -129.821,-129.821c0,-23.505 6.384,-46.575 18.468,-66.737c28.557,-47.036 83.831,-71.303 137.785,-60.491c60.255,12.636 102.297,66.473 103.339,127.233c0,2.304 1.896,4.201 4.2,4.201c2.305,0 4.201,-1.897 4.201,-4.201c-0.031,-75.787 -62.401,-138.132 -138.188,-138.132c-41.953,0 -81.702,19.105 -107.909,51.865c-19.625,24.502 -30.324,54.975 -30.324,86.366c0,75.79 62.366,138.155 138.155,138.155c8.139,0 16.262,-0.719 24.274,-2.149c65.969,-11.594 112.849,-69.935 113.992,-136.071c0,-0.006 0,-0.012 0,-0.017c0,-2.305 -1.896,-4.201 -4.201,-4.201c-2.298,0 -4.191,1.886 -4.2,4.184Z" style="fill:#19ac84;fill-rule:nonzero;"/></g></g><path d="M274.435,1855.06l-48.661,0l0,-1366.32c-0.002,-10.659 -0.63,-21.308 -1.882,-31.893c-8.353,-70.982 -44.368,-135.885 -100.18,-180.532l249.122,0c-62.284,51.692 -98.375,128.561 -98.365,209.501l-0.034,1369.25Z" style="fill:#fff;fill-rule:nonzero;"/><clipPath id="_clip3"><path d="M274.435,1855.06l-48.661,0l0,-1366.32c-0.002,-10.659 -0.63,-21.308 -1.882,-31.893c-8.353,-70.982 -44.368,-135.885 -100.18,-180.532l249.122,0c-62.284,51.692 -98.375,128.561 -98.365,209.501l-0.034,1369.25Z"/></clipPath><g clip-path="url(#_clip3)"><path d="M464.853,266.169l-345.225,-102.981l-36.812,123.405l345.225,102.981l36.812,-123.405Z" style="fill:#43bc97;"/></g><path d="M124.485,276.312c0,-20.634 -0.975,-41.335 4.1,-61.566c8.569,-34.11 30.245,-65.061 63.314,-78.974c4.906,-2.084 2.755,-10.082 -2.252,-8.133c-31.086,13.241 -53.333,39.252 -64.692,70.875c-9.409,25.407 -8.872,51.317 -8.872,77.798c0,2.305 1.897,4.201 4.201,4.201c2.304,0 4.201,-1.896 4.201,-4.201Z" style="fill:#19ac84;fill-rule:nonzero;"/><path d="M189.109,207.05c-0.537,9.511 -14.854,9.578 -14.854,0c0,-9.577 14.317,-9.477 14.854,0c0.269,5.377 8.671,5.411 8.402,0c0,-0.007 0,-0.014 0,-0.02c0,-8.684 -7.145,-15.829 -15.829,-15.829c-8.683,0 -15.828,7.145 -15.828,15.829c0,8.442 6.754,15.475 15.19,15.815c0.124,0.003 0.248,0.004 0.372,0.004c8.718,0 15.933,-7.082 16.095,-15.799c0.269,-5.377 -8.133,-5.377 -8.402,0Z" style="fill:#19ac84;fill-rule:nonzero;"/><path d="M223.892,458.458c-8.378,-70.964 -44.404,-135.841 -100.214,-180.465l249.122,0c-62.275,51.684 -98.365,128.538 -98.365,209.467l0,1367.6l-48.661,0l0,-472.233" style="fill:none;stroke:#19ac84;stroke-width:11.76px;stroke-linecap:square;stroke-miterlimit:1.41421;"/><path d="M225.774,755.401l0,-202.309" style="fill:none;stroke:#19ac84;stroke-width:10.08px;stroke-linecap:square;stroke-linejoin:round;stroke-miterlimit:1.41421;"/><path d="M225.774,1051.5l0,-163.964" style="fill:none;stroke:#19ac84;stroke-width:10.08px;stroke-linecap:square;stroke-linejoin:round;stroke-miterlimit:1.41421;"/><circle cx="250.071" cy="714.066" r="12.905" style="fill:#fff;stroke:#19ac84;stroke-width:6.72px;stroke-linejoin:round;stroke-miterlimit:1.41421;"/><circle cx="250.071" cy="787.596" r="12.905" style="fill:#fff;stroke:#19ac84;stroke-width:6.72px;stroke-linejoin:round;stroke-miterlimit:1.41421;"/><path d="M250.071,752.444l0,73.53" style="fill-rule:nonzero;stroke:#19ac84;stroke-width:6.72px;stroke-linejoin:round;stroke-miterlimit:1.41421;"/><circle cx="250.071" cy="858.706" r="12.905" style="fill:#fff;stroke:#19ac84;stroke-width:6.72px;stroke-linejoin:round;stroke-miterlimit:1.41421;"/><path d="M238.006,998.205l0,619.596" style="fill-rule:nonzero;stroke:#19ac84;stroke-width:3.36px;stroke-linejoin:round;stroke-miterlimit:1.41421;"/><path d="M250.911,1054.39l0,537.092" style="fill-rule:nonzero;stroke:#19ac84;stroke-width:3.36px;stroke-linejoin:round;stroke-miterlimit:1.41421;"/><path d="M262.975,1082.42l0,541.26" style="fill-rule:nonzero;stroke:#19ac84;stroke-width:3.36px;stroke-linejoin:round;stroke-miterlimit:1.41421;"/><path d="M209.777,584.245l83.914,0" style="fill-rule:nonzero;stroke:#19ac84;stroke-width:11.76px;stroke-linejoin:round;stroke-miterlimit:1.41421;"/><path d="M193.176,604.375l117.117,0" style="fill-rule:nonzero;stroke:#19ac84;stroke-width:11.76px;stroke-linejoin:round;stroke-miterlimit:1.41421;"/><path d="M209.777,624.505l83.914,0" style="fill-rule:nonzero;stroke:#19ac84;stroke-width:11.76px;stroke-linejoin:round;stroke-miterlimit:1.41421;"/><path d="M209.777,936.874l83.914,0" style="fill-rule:nonzero;stroke:#19ac84;stroke-width:11.76px;stroke-linejoin:round;stroke-miterlimit:1.41421;"/><path d="M193.176,957.004l117.117,0" style="fill-rule:nonzero;stroke:#19ac84;stroke-width:11.76px;stroke-linejoin:round;stroke-miterlimit:1.41421;"/><path d="M209.777,977.134l83.914,0" style="fill-rule:nonzero;stroke:#19ac84;stroke-width:11.76px;stroke-linejoin:round;stroke-miterlimit:1.41421;"/></g></g></svg>