<?xml version="1.0" encoding="UTF-8" standalone="no"?><!DOCTYPE svg PUBLIC "-//W3C//DTD SVG 1.1//EN" "http://www.w3.org/Graphics/SVG/1.1/DTD/svg11.dtd"><svg width="100%" height="100%" viewBox="0 0 8534 551" version="1.1" xmlns="http://www.w3.org/2000/svg" xmlns:xlink="http://www.w3.org/1999/xlink" xml:space="preserve" xmlns:serif="http://www.serif.com/" style="fill-rule:evenodd;clip-rule:evenodd;stroke-linejoin:round;stroke-miterlimit:1.41421;"><g id="Dark-Grey-Clouds" serif:id="Dark Grey Clouds"><path d="M8152.81,80.652c-34.948,-47.335 -91.126,-78.032 -154.478,-78.032c-52.464,0 -99.989,21.075 -134.632,55.197c-22.323,-12.317 -47.966,-19.348 -75.265,-19.348c-33.245,0 -64.036,10.433 -89.352,28.149c-28.433,-29.961 -68.609,-48.683 -113.173,-48.683c-48.891,0 -92.511,22.498 -121.125,57.688c-25.434,-14.143 -54.698,-22.228 -85.864,-22.228c-63.798,0 -119.697,33.771 -150.834,84.403c-15.002,-43.459 -56.245,-74.686 -104.799,-74.686c-28.225,0 -53.968,10.556 -73.539,27.92c-43.629,-49.172 -103.608,-90.736 -187.119,-90.736c-78.411,0 -148.32,33.227 -180.871,77.855c-19.722,-14.385 -43.999,-22.896 -70.284,-22.896c-41.798,0 -78.562,21.497 -99.893,54.015c-28.751,-33.069 -71.1,-54.015 -118.359,-54.015c-47.823,0 -90.613,21.43 -119.374,55.182c-15.908,-47.264 -60.548,-81.319 -113.177,-81.319c-49.451,0 -91.881,30.056 -110.018,72.898c-28.714,-29.567 -68.87,-47.961 -113.34,-47.961c-39.354,0 -75.322,14.418 -102.982,38.216c-33.547,-38.667 -83.003,-63.153 -138.214,-63.153c-63.153,0 -118.828,31.996 -151.707,80.66l0,406.266l2989.18,0l0,-475.037c-21.554,-7.491 -99.585,-31.65 -188.528,2.458c-28.742,11.017 -52.734,25.866 -72.575,42.002c-18.039,-32.935 -90.045,-50.936 -119.673,-4.815Z" style="fill:#bbb;fill-rule:nonzero;"/><path d="M5379.81,80.652c-34.948,-47.335 -91.126,-78.032 -154.478,-78.032c-52.464,0 -99.989,21.075 -134.632,55.197c-22.323,-12.317 -47.966,-19.348 -75.265,-19.348c-33.245,0 -64.036,10.433 -89.352,28.149c-28.433,-29.961 -68.609,-48.683 -113.173,-48.683c-48.891,0 -92.511,22.498 -121.125,57.688c-25.434,-14.143 -54.698,-22.228 -85.864,-22.228c-63.798,0 -119.697,33.771 -150.834,84.403c-15.002,-43.459 -56.245,-74.686 -104.799,-74.686c-28.225,0 -53.968,10.556 -73.539,27.92c-43.629,-49.172 -103.608,-90.736 -187.119,-90.736c-78.411,0 -148.32,33.227 -180.871,77.855c-19.722,-14.385 -43.999,-22.896 -70.284,-22.896c-41.798,0 -78.562,21.497 -99.893,54.015c-28.751,-33.069 -71.1,-54.015 -118.359,-54.015c-47.823,0 -90.613,21.43 -119.374,55.182c-15.908,-47.264 -60.548,-81.319 -113.177,-81.319c-49.451,0 -91.881,30.056 -110.018,72.898c-28.714,-29.567 -68.87,-47.961 -113.34,-47.961c-39.354,0 -75.322,14.418 -102.982,38.216c-33.547,-38.667 -83.003,-63.153 -138.214,-63.153c-63.153,0 -118.828,31.996 -151.707,80.66l0,440.603l2989.18,0l0,-509.374c-21.554,-7.491 -99.585,-31.65 -188.528,2.458c-28.742,11.017 -52.734,25.866 -72.575,42.002c-18.039,-32.935 -90.045,-50.936 -119.673,-4.815Z" style="fill:#bbb;fill-rule:nonzero;"/><path d="M2608.81,80.652c-34.948,-47.335 -91.126,-78.032 -154.478,-78.032c-52.464,0 -99.989,21.075 -134.632,55.197c-22.323,-12.317 -47.966,-19.348 -75.265,-19.348c-33.245,0 -64.036,10.433 -89.352,28.149c-28.433,-29.961 -68.609,-48.683 -113.173,-48.683c-48.891,0 -92.511,22.498 -121.125,57.688c-25.434,-14.143 -54.698,-22.228 -85.864,-22.228c-63.798,0 -119.697,33.771 -150.834,84.403c-15.002,-43.459 -56.245,-74.686 -104.799,-74.686c-28.225,0 -53.968,10.556 -73.539,27.92c-43.629,-49.172 -103.608,-90.736 -187.119,-90.736c-78.411,0 -148.32,33.227 -180.871,77.855c-19.722,-14.385 -43.999,-22.896 -70.284,-22.896c-41.798,0 -78.562,21.497 -99.893,54.015c-28.751,-33.069 -71.1,-54.015 -118.359,-54.015c-47.823,0 -90.613,21.43 -119.374,55.182c-15.908,-47.264 -60.548,-81.319 -113.177,-81.319c-49.451,0 -91.881,30.056 -110.018,72.898c-28.714,-29.567 -68.87,-47.961 -113.34,-47.961c-39.354,0 -75.322,14.418 -102.982,38.216c-33.547,-38.667 -83.003,-63.153 -138.214,-63.153c-63.153,0 -118.828,31.996 -151.707,80.66l0,437.458l2989.18,0l0,-506.229c-21.554,-7.491 -99.585,-31.65 -188.528,2.458c-28.742,11.017 -52.734,25.866 -72.575,42.002c-18.039,-32.935 -90.045,-50.936 -119.673,-4.815Z" style="fill:#bbb;fill-rule:nonzero;"/></g></svg>