<svg width="30" height="30" viewBox="0 0 30 30" fill="none" xmlns="http://www.w3.org/2000/svg">
<path d="M15 0.21875C6.97266 0.21875 0.46875 6.78125 0.46875 14.75C0.46875 22.7773 6.97266 29.2812 15 29.2812C22.9688 29.2812 29.5312 22.7773 29.5312 14.75C29.5312 6.78125 22.9688 0.21875 15 0.21875ZM24.5508 6.95703C26.3086 9.06641 27.3633 11.7617 27.3633 14.6914C26.9531 14.5742 22.8516 13.7539 18.75 14.2812C18.3984 13.4609 18.1055 12.7578 17.6367 11.8203C22.2656 9.94531 24.3164 7.30859 24.5508 6.95703ZM23.2031 5.49219C22.9688 5.84375 21.0938 8.36328 16.6992 10.0039C14.6484 6.25391 12.4219 3.20703 12.0703 2.73828C15.9961 1.80078 20.1562 2.79688 23.2031 5.49219ZM9.66797 3.55859C10.0195 4.02734 12.2461 7.07422 14.2969 10.7656C8.49609 12.2891 3.39844 12.2891 2.8125 12.2305C3.63281 8.42188 6.21094 5.19922 9.66797 3.55859ZM2.57812 14.8086C2.57812 14.6914 2.57812 14.5742 2.57812 14.3984C3.10547 14.457 9.14062 14.5156 15.293 12.6406C15.7031 13.3438 15.9961 14.0469 16.3477 14.75C11.8359 16.0391 7.73438 19.6719 5.74219 23.0703C3.75 20.9023 2.57812 17.9727 2.57812 14.8086ZM7.32422 24.5938C8.67188 21.957 12.1875 18.5 17.168 16.8008C18.9258 21.3125 19.6289 25.1211 19.8047 26.2344C15.8203 27.9336 11.0156 27.4648 7.32422 24.5938ZM21.9141 25.0625C21.7969 24.3594 21.0938 20.7266 19.5117 16.2148C23.3789 15.6289 26.7773 16.625 27.2461 16.7422C26.6602 20.1992 24.668 23.1875 21.9141 25.0625Z" fill="black"/>
</svg>
