<?xml version="1.0" encoding="UTF-8" standalone="no"?><!DOCTYPE svg PUBLIC "-//W3C//DTD SVG 1.1//EN" "http://www.w3.org/Graphics/SVG/1.1/DTD/svg11.dtd"><svg width="100%" height="100%" viewBox="0 0 7388 533" version="1.1" xmlns="http://www.w3.org/2000/svg" xmlns:xlink="http://www.w3.org/1999/xlink" xml:space="preserve" xmlns:serif="http://www.serif.com/" style="fill-rule:evenodd;clip-rule:evenodd;stroke-linejoin:round;stroke-miterlimit:1.41421;"><g id="Grey-Clouds" serif:id="Grey Clouds"><path d="M4739.22,140.731c32.878,-48.668 88.559,-80.664 151.712,-80.664c55.206,0 104.666,24.491 138.209,63.157c27.66,-23.797 63.627,-38.22 102.982,-38.22c44.474,0 84.626,18.398 113.339,47.965c18.138,-42.841 60.567,-72.902 110.023,-72.902c52.625,0 97.27,34.06 113.173,81.324c28.761,-33.752 71.55,-55.178 119.369,-55.178c47.264,0 89.613,20.937 118.359,54.011c21.34,-32.523 58.1,-54.011 99.898,-54.011c26.279,0 50.561,8.507 70.284,22.892c34.378,-64.742 102.455,-108.856 180.871,-108.856c83.511,0 155.289,50.04 187.119,121.742c19.575,-17.365 45.314,-27.93 73.538,-27.93c48.559,0 89.793,31.227 104.795,74.686c31.142,-50.628 87.036,-84.398 150.834,-84.398c31.171,0 60.439,8.084 85.869,22.232c28.613,-35.194 72.234,-57.687 121.12,-57.687c44.574,0 84.744,18.712 113.178,48.677c25.316,-17.72 56.107,-28.148 89.351,-28.148c27.299,0 52.948,7.026 75.27,19.348c34.639,-34.122 82.168,-55.197 134.627,-55.197c92.735,0 170.102,65.777 187.993,153.221c2.557,12.492 3.9,25.42 3.9,38.671l2.557,301.574l-2774.15,0l0,-277.852c-14.072,-36.512 -2.904,-77.869 27.062,-101.563c27.911,-22.066 67.143,-24.865 98.717,-6.894Z" style="fill:#f1f1f2;fill-rule:nonzero;"/><path d="M2438.22,171.731c32.878,-48.668 88.559,-80.664 151.712,-80.664c55.206,0 104.666,24.491 138.209,63.157c27.66,-23.797 63.627,-38.22 102.982,-38.22c44.474,0 84.626,18.398 113.339,47.965c18.138,-42.841 60.567,-72.902 110.023,-72.902c52.625,0 97.27,34.06 113.173,81.324c28.761,-33.752 71.55,-55.178 119.369,-55.178c47.264,0 89.613,20.937 118.359,54.011c21.34,-32.523 58.1,-54.011 99.898,-54.011c26.279,0 50.561,8.507 70.284,22.892c34.378,-64.742 102.455,-108.856 180.871,-108.856c83.511,0 155.289,50.04 187.119,121.742c19.575,-17.365 45.314,-27.93 73.538,-27.93c48.559,0 89.793,31.227 104.795,74.686c31.142,-50.628 87.036,-84.398 150.834,-84.398c31.171,0 60.439,8.084 85.869,22.232c28.613,-35.194 72.234,-57.687 121.12,-57.687c44.574,0 84.744,18.712 113.178,48.677c25.316,-17.72 56.107,-28.148 89.351,-28.148c27.299,0 52.948,7.026 75.27,19.348c34.639,-34.122 82.168,-55.197 134.627,-55.197c92.735,0 170.102,65.777 187.993,153.221c2.557,12.492 3.9,25.42 3.9,38.671l0,275.964l-2771.59,0l0,-252.242c-14.072,-36.512 -2.904,-77.869 27.062,-101.563c27.911,-22.066 67.143,-24.865 98.717,-6.894Z" style="fill:#f1f1f2;fill-rule:nonzero;"/><path d="M132.216,200.731c32.878,-48.668 88.559,-80.664 151.712,-80.664c55.206,0 104.666,24.491 138.209,63.157c27.66,-23.797 63.627,-38.22 102.982,-38.22c44.474,0 84.626,18.398 113.339,47.965c18.138,-42.841 60.567,-72.902 110.023,-72.902c52.625,0 97.27,34.06 113.173,81.324c28.761,-33.752 71.55,-55.178 119.369,-55.178c47.264,0 89.613,20.937 118.359,54.011c21.34,-32.523 58.1,-54.011 99.898,-54.011c26.279,0 50.561,8.507 70.284,22.892c34.378,-64.742 102.455,-108.856 180.871,-108.856c83.511,0 155.289,50.04 187.119,121.742c19.575,-17.365 45.314,-27.93 73.538,-27.93c48.559,0 89.793,31.227 104.795,74.686c31.142,-50.628 87.036,-84.398 150.834,-84.398c31.171,0 60.439,8.084 85.869,22.232c28.613,-35.194 72.234,-57.687 121.12,-57.687c44.574,0 84.744,18.712 113.178,48.677c25.316,-17.72 56.107,-28.148 89.351,-28.148c27.299,0 52.948,7.026 75.27,19.348c34.639,-34.122 82.168,-55.197 134.627,-55.197c92.735,0 170.102,65.777 187.993,153.221c2.557,12.492 3.9,25.42 3.9,38.671l0,224.223l-2771.59,0l0,-200.501c-14.072,-36.512 -2.904,-77.869 27.062,-101.563c27.911,-22.066 67.143,-24.865 98.717,-6.894Z" style="fill:#f1f1f2;fill-rule:nonzero;"/></g></svg>