<?xml version="1.0" encoding="UTF-8" standalone="no"?>
<!DOCTYPE svg PUBLIC "-//W3C//DTD SVG 1.1//EN" "http://www.w3.org/Graphics/SVG/1.1/DTD/svg11.dtd">
<svg width="100%" height="100%" viewBox="0 0 294 300" version="1.1" xmlns="http://www.w3.org/2000/svg" xmlns:xlink="http://www.w3.org/1999/xlink" xml:space="preserve" xmlns:serif="http://www.serif.com/" style="fill-rule:evenodd;clip-rule:evenodd;stroke-miterlimit:10;">
    <g transform="matrix(1,0,0,1,-31703,-9143)">
        <g transform="matrix(0.387513,0,0,0.435045,22139.7,8709.05)">
            <g id="White-Design" serif:id="White Design">
                <g transform="matrix(8.46169,0,0,7.53718,24874.1,1198.38)">
                    <g opacity="0.91">
                        <g transform="matrix(1,0,0,1,1.15559,-0.850623)">
                            <path d="M19.76,4C20.484,3.272 20.484,2.078 19.76,1.35L19.43,1C19.089,0.628 18.614,0.405 18.11,0.38L10.87,0.38C10.366,0.405 9.891,0.628 9.55,1L2.62,8C2.269,8.347 2.071,8.821 2.071,9.315C2.071,9.809 2.269,10.283 2.62,10.63L6.62,14.58C6.969,14.932 7.445,15.13 7.94,15.13C8.435,15.13 8.911,14.932 9.26,14.58L11,12.75C11.349,12.398 11.825,12.2 12.32,12.2C12.815,12.2 13.291,12.398 13.64,12.75L14.3,13.4C14.646,13.754 15.12,13.953 15.615,13.953C16.11,13.953 16.584,13.754 16.93,13.4L18.69,11.65C19.042,11.301 19.24,10.825 19.24,10.33C19.24,9.835 19.042,9.359 18.69,9.01L18,8.35C17.648,8.001 17.45,7.525 17.45,7.03C17.45,6.535 17.648,6.059 18,5.71L19.76,4Z" style="fill:none;stroke:rgb(40,165,202);stroke-width:1.22px;"/>
                        </g>
                        <g transform="matrix(1,0,0,1,1.15559,-0.850623)">
                            <path d="M41.75,7.9L34.81,1C34.473,0.629 34.001,0.405 33.5,0.38L26.25,0.38C25.746,0.407 25.272,0.63 24.93,1L24.6,1.37C23.879,2.091 23.879,3.279 24.6,4L26.36,5.75C26.712,6.099 26.91,6.575 26.91,7.07C26.91,7.565 26.712,8.041 26.36,8.39L7,27.7C6.284,28.424 6.284,29.606 7,30.33L8.76,32.09C9.488,32.814 10.682,32.814 11.41,32.09L30.75,12.75C31.099,12.398 31.575,12.2 32.07,12.2C32.565,12.2 33.041,12.398 33.39,12.75L35.15,14.5C35.499,14.852 35.975,15.05 36.47,15.05C36.965,15.05 37.441,14.852 37.79,14.5L41.79,10.55C42.492,9.806 42.474,8.622 41.75,7.9Z" style="fill:none;stroke:rgb(40,165,202);stroke-width:1.22px;"/>
                        </g>
                        <g transform="matrix(1,0,0,1,0.609939,-0.304969)">
                            <path d="M30.1,20.44C29.751,20.088 29.275,19.89 28.78,19.89C28.285,19.89 27.809,20.088 27.46,20.44L25.7,22.2C25.348,22.549 25.15,23.025 25.15,23.52C25.15,24.015 25.348,24.491 25.7,24.84L33,32.09C33.349,32.442 33.825,32.64 34.32,32.64C34.815,32.64 35.291,32.442 35.64,32.09L37.4,30.33C37.751,29.983 37.949,29.509 37.949,29.015C37.949,28.521 37.751,28.047 37.4,27.7L30.1,20.44Z" style="fill:none;stroke:rgb(40,165,202);stroke-width:1.22px;"/>
                        </g>
                        <path d="M39.67,8.22L32.74,1.22C32.386,0.878 31.912,0.688 31.42,0.69L24.18,0.69C23.681,0.701 23.206,0.91 22.86,1.27L22.53,1.63C22.178,1.979 21.98,2.455 21.98,2.95C21.98,3.445 22.178,3.921 22.53,4.27L24.29,6C25.007,6.727 25.007,7.913 24.29,8.64L4.94,28C4.588,28.349 4.39,28.825 4.39,29.32C4.39,29.815 4.588,30.291 4.94,30.64L6.7,32.41C7.427,33.127 8.613,33.127 9.34,32.41L28.68,13.06C29.029,12.708 29.505,12.51 30,12.51C30.495,12.51 30.971,12.708 31.32,13.06L33.08,14.82C33.427,15.171 33.901,15.369 34.395,15.369C34.889,15.369 35.363,15.171 35.71,14.82L39.71,10.82C40.391,10.087 40.373,8.932 39.67,8.22Z" style="fill:rgb(40,165,202);fill-rule:nonzero;"/>
                        <clipPath id="_clip1">
                            <path d="M39.67,8.22L32.74,1.22C32.386,0.878 31.912,0.688 31.42,0.69L24.18,0.69C23.681,0.701 23.206,0.91 22.86,1.27L22.53,1.63C22.178,1.979 21.98,2.455 21.98,2.95C21.98,3.445 22.178,3.921 22.53,4.27L24.29,6C25.007,6.727 25.007,7.913 24.29,8.64L4.94,28C4.588,28.349 4.39,28.825 4.39,29.32C4.39,29.815 4.588,30.291 4.94,30.64L6.7,32.41C7.427,33.127 8.613,33.127 9.34,32.41L28.68,13.06C29.029,12.708 29.505,12.51 30,12.51C30.495,12.51 30.971,12.708 31.32,13.06L33.08,14.82C33.427,15.171 33.901,15.369 34.395,15.369C34.889,15.369 35.363,15.171 35.71,14.82L39.71,10.82C40.391,10.087 40.373,8.932 39.67,8.22Z" clip-rule="nonzero"/>
                        </clipPath>
                        <g clip-path="url(#_clip1)">
                            <g transform="matrix(1,0,0,1,1.15559,-0.850623)">
                                <path d="M41.75,7.9L34.81,1C34.473,0.629 34.001,0.405 33.5,0.38L26.25,0.38C25.746,0.407 25.272,0.63 24.93,1L24.6,1.37C23.879,2.091 23.879,3.279 24.6,4L26.36,5.75C26.712,6.099 26.91,6.575 26.91,7.07C26.91,7.565 26.712,8.041 26.36,8.39L7,27.7C6.284,28.424 6.284,29.606 7,30.33L8.76,32.09C9.488,32.814 10.682,32.814 11.41,32.09L30.75,12.75C31.099,12.398 31.575,12.2 32.07,12.2C32.565,12.2 33.041,12.398 33.39,12.75L35.15,14.5C35.499,14.852 35.975,15.05 36.47,15.05C36.965,15.05 37.441,14.852 37.79,14.5L41.79,10.55C42.492,9.806 42.474,8.622 41.75,7.9Z" style="fill:none;stroke:rgb(244,244,244);stroke-width:1.22px;"/>
                            </g>
                        </g>
                        <path d="M17.69,4.26C18.042,3.911 18.24,3.435 18.24,2.94C18.24,2.445 18.042,1.969 17.69,1.62L17.36,1.27C17.003,0.902 16.513,0.693 16,0.69L8.79,0.69C8.294,0.702 7.822,0.911 7.48,1.27L0.55,8.27C0.198,8.619 0,9.095 0,9.59C0,10.085 0.198,10.561 0.55,10.91L4.55,14.91C4.897,15.261 5.371,15.459 5.865,15.459C6.359,15.459 6.833,15.261 7.18,14.91L8.9,13.06C9.249,12.708 9.725,12.51 10.22,12.51C10.715,12.51 11.191,12.708 11.54,13.06L12.19,13.72C12.539,14.072 13.015,14.27 13.51,14.27C14.005,14.27 14.481,14.072 14.83,13.72L16.59,12C17.314,11.272 17.314,10.078 16.59,9.35L15.93,8.7C15.206,7.972 15.206,6.778 15.93,6.05L17.69,4.26Z" style="fill:rgb(40,165,202);fill-rule:nonzero;"/>
                        <clipPath id="_clip2">
                            <path d="M17.69,4.26C18.042,3.911 18.24,3.435 18.24,2.94C18.24,2.445 18.042,1.969 17.69,1.62L17.36,1.27C17.003,0.902 16.513,0.693 16,0.69L8.79,0.69C8.294,0.702 7.822,0.911 7.48,1.27L0.55,8.27C0.198,8.619 0,9.095 0,9.59C0,10.085 0.198,10.561 0.55,10.91L4.55,14.91C4.897,15.261 5.371,15.459 5.865,15.459C6.359,15.459 6.833,15.261 7.18,14.91L8.9,13.06C9.249,12.708 9.725,12.51 10.22,12.51C10.715,12.51 11.191,12.708 11.54,13.06L12.19,13.72C12.539,14.072 13.015,14.27 13.51,14.27C14.005,14.27 14.481,14.072 14.83,13.72L16.59,12C17.314,11.272 17.314,10.078 16.59,9.35L15.93,8.7C15.206,7.972 15.206,6.778 15.93,6.05L17.69,4.26Z" clip-rule="nonzero"/>
                        </clipPath>
                        <g clip-path="url(#_clip2)">
                            <g transform="matrix(1,0,0,1,1.15559,-0.850623)">
                                <path d="M19.76,4C20.484,3.272 20.484,2.078 19.76,1.35L19.43,1C19.089,0.628 18.614,0.405 18.11,0.38L10.87,0.38C10.366,0.405 9.891,0.628 9.55,1L2.62,8C2.269,8.347 2.071,8.821 2.071,9.315C2.071,9.809 2.269,10.283 2.62,10.63L6.62,14.58C6.969,14.932 7.445,15.13 7.94,15.13C8.435,15.13 8.911,14.932 9.26,14.58L11,12.75C11.349,12.398 11.825,12.2 12.32,12.2C12.815,12.2 13.291,12.398 13.64,12.75L14.3,13.4C14.646,13.754 15.12,13.953 15.615,13.953C16.11,13.953 16.584,13.754 16.93,13.4L18.69,11.65C19.042,11.301 19.24,10.825 19.24,10.33C19.24,9.835 19.042,9.359 18.69,9.01L18,8.35C17.648,8.001 17.45,7.525 17.45,7.03C17.45,6.535 17.648,6.059 18,5.71L19.76,4Z" style="fill:none;stroke:rgb(244,244,244);stroke-width:1.22px;"/>
                            </g>
                        </g>
                        <path d="M28,20.76C27.653,20.409 27.179,20.211 26.685,20.211C26.191,20.211 25.717,20.409 25.37,20.76L23.61,22.52C23.259,22.867 23.061,23.341 23.061,23.835C23.061,24.329 23.259,24.803 23.61,25.15L30.85,32.41C31.583,33.123 32.767,33.123 33.5,32.41L35.26,30.65C35.977,29.923 35.977,28.737 35.26,28.01L28,20.76Z" style="fill:rgb(40,165,202);fill-rule:nonzero;"/>
                        <clipPath id="_clip3">
                            <path d="M28,20.76C27.653,20.409 27.179,20.211 26.685,20.211C26.191,20.211 25.717,20.409 25.37,20.76L23.61,22.52C23.259,22.867 23.061,23.341 23.061,23.835C23.061,24.329 23.259,24.803 23.61,25.15L30.85,32.41C31.583,33.123 32.767,33.123 33.5,32.41L35.26,30.65C35.977,29.923 35.977,28.737 35.26,28.01L28,20.76Z" clip-rule="nonzero"/>
                        </clipPath>
                        <g clip-path="url(#_clip3)">
                            <g transform="matrix(1,0,0,1,0.609939,-0.304969)">
                                <path d="M30.1,20.44C29.751,20.088 29.275,19.89 28.78,19.89C28.285,19.89 27.809,20.088 27.46,20.44L25.7,22.2C25.348,22.549 25.15,23.025 25.15,23.52C25.15,24.015 25.348,24.491 25.7,24.84L33,32.09C33.349,32.442 33.825,32.64 34.32,32.64C34.815,32.64 35.291,32.442 35.64,32.09L37.4,30.33C37.751,29.983 37.949,29.509 37.949,29.015C37.949,28.521 37.751,28.047 37.4,27.7L30.1,20.44Z" style="fill:none;stroke:rgb(244,244,244);stroke-width:1.22px;"/>
                            </g>
                        </g>
                    </g>
                </g>
                <g transform="matrix(0.427716,0,0,0.380985,17611.9,-2436.5)">
                    <circle cx="17409" cy="9862" r="543" style="fill:none;stroke:rgb(40,165,202);stroke-width:48.27px;stroke-linecap:round;stroke-linejoin:round;stroke-miterlimit:23;"/>
                </g>
                <g id="Sparkles" transform="matrix(4.64636,0,0,4.13871,-2301.91,811.096)">
                    <g transform="matrix(0.625258,-0.146454,0.146454,0.625258,5956.26,63.7207)">
                        <path d="M0,18.037C-6.719,9.29 -6.916,9.018 -15.935,15.935C-6.916,9.018 -6.916,9.018 -13.832,0C-6.916,9.018 -6.916,9.018 2.103,2.102C-6.916,9.018 -6.916,9.018 0,18.037Z" style="fill:rgb(40,165,202);fill-rule:nonzero;stroke:rgb(40,165,202);stroke-width:3.46px;"/>
                    </g>
                    <g transform="matrix(0.620784,0.164386,-0.164386,0.620784,5910.38,188.856)">
                        <path d="M0,18.037C-6.719,9.29 -6.916,9.018 -15.935,15.935C-6.916,9.018 -6.916,9.018 -13.832,0C-6.916,9.018 -6.916,9.018 2.103,2.102C-6.916,9.018 -6.916,9.018 0,18.037Z" style="fill:rgb(40,165,202);fill-rule:nonzero;stroke:rgb(40,165,202);stroke-width:3.46px;"/>
                    </g>
                    <g transform="matrix(0.145318,0,0,0.145318,5274.46,-490.415)">
                        <circle cx="3878" cy="3728" r="35" style="fill:rgb(40,165,202);stroke:rgb(40,165,202);stroke-width:11.94px;stroke-linecap:round;stroke-linejoin:round;stroke-miterlimit:1.5;"/>
                    </g>
                    <g transform="matrix(0.0648206,-0.13006,0.13006,0.0648206,5227.74,408.708)">
                        <circle cx="3878" cy="3728" r="35" style="fill:rgb(40,165,202);stroke:rgb(40,165,202);stroke-width:11.94px;stroke-linecap:round;stroke-linejoin:round;stroke-miterlimit:1.5;"/>
                    </g>
                    <g transform="matrix(0.0648206,-0.13006,0.13006,0.0648206,5076.69,401.32)">
                        <circle cx="3878" cy="3728" r="35" style="fill:rgb(40,165,202);stroke:rgb(40,165,202);stroke-width:11.94px;stroke-linecap:round;stroke-linejoin:round;stroke-miterlimit:1.5;"/>
                    </g>
                    <g transform="matrix(0.239347,0,0,0.239347,4715.64,-767.195)">
                        <circle cx="4659.5" cy="3490.5" r="8.5" style="fill:rgb(40,165,202);stroke:rgb(40,165,202);stroke-width:7.25px;stroke-linecap:round;stroke-linejoin:round;stroke-miterlimit:1.5;"/>
                    </g>
                </g>
            </g>
        </g>
    </g>
</svg>
