<?xml version="1.0" encoding="UTF-8"?>
<svg width="22px" height="22px" viewBox="0 0 22 22" version="1.1" xmlns="http://www.w3.org/2000/svg" xmlns:xlink="http://www.w3.org/1999/xlink">
    <!-- Generator: Sketch 55.2 (78181) - https://sketchapp.com -->
    <title>Insta Logo</title>
    <desc>Created with Sketch.</desc>
    <g id="Wireframes" stroke="none" stroke-width="1" fill="none" fill-rule="evenodd">
        <g id="Desktop-HD-Copy-2" transform="translate(-1279.000000, -20.000000)">
            <g id="Insta-Logo" transform="translate(1279.000000, 20.000000)">
                <path d="M7.6916556,1 C5.40417043,1 4.48759765,1.17699837 3.54106175,1.68321131 C2.73755244,2.11293279 2.11293279,2.73755244 1.68321131,3.54106175 C1.17699837,4.48759765 1,5.40417043 1,7.6916556 L1,14.3083444 C1,16.5958296 1.17699837,17.5124023 1.68321131,18.4589383 C2.11293279,19.2624476 2.73755244,19.8870672 3.54106175,20.3167887 C4.48759765,20.8230016 5.40417043,21 7.6916556,21 L14.3083444,21 C16.5958296,21 17.5124023,20.8230016 18.4589383,20.3167887 C19.2624476,19.8870672 19.8870672,19.2624476 20.3167887,18.4589383 C20.8230016,17.5124023 21,16.5958296 21,14.3083444 L21,7.6916556 C21,5.40417043 20.8230016,4.48759765 20.3167887,3.54106175 C19.8870672,2.73755244 19.2624476,2.11293279 18.4589383,1.68321131 C17.5124023,1.17699837 16.5958296,1 14.3083444,1 L7.6916556,1 Z" id="Rectangle" stroke="#1F1F1F" stroke-width="2"></path>
                <circle id="Oval" stroke="#1F1F1F" stroke-width="2" cx="11" cy="11" r="5"></circle>
                <circle id="Oval" fill="#1F1F1F" cx="16.5" cy="4.5" r="1.5"></circle>
            </g>
        </g>
    </g>
</svg>