<svg width="527" height="110" viewBox="0 0 527 110" fill="none" xmlns="http://www.w3.org/2000/svg">
<g clip-path="url(#clip0)">
<path d="M48.77 0L10.73 35.12L42.92 15.33L48.77 0Z" fill="#A3FFF0"/>
<path d="M48.7699 0L125.21 4.83L42.9199 15.33L48.7699 0Z" fill="#FFE582"/>
<path d="M125.21 4.82996L81.9399 53.65L42.9199 15.33L125.21 4.82996Z" fill="#F9C400"/>
<path d="M42.92 15.33L0.97998 83.77L81.94 53.65L42.92 15.33Z" fill="#A6C748"/>
<path d="M10.73 35.12L0.97998 83.77L42.92 15.33L10.73 35.12Z" fill="#7CDECE"/>
<path d="M0.97998 83.77L108.17 109.12L28.01 83.33L0.97998 83.77Z" fill="#535494"/>
<path d="M81.94 53.65L108.17 109.12L0.97998 83.77L81.94 53.65Z" fill="#738A32"/>
<path d="M125.21 4.82996L109.95 59.78L81.9399 53.65L125.21 4.82996Z" fill="#FF2129"/>
<path d="M109.95 59.78L108.17 109.12L81.9399 53.65L109.95 59.78Z" fill="#AB161B"/>
</g>
<path d="M156.09 45.395C156.09 42.34 158.82 39.935 163.5 39.935C167.66 39.935 171.755 41.56 175.85 44.615L180.14 38.57C175.525 34.865 170.26 32.85 163.63 32.85C154.595 32.85 148.095 38.18 148.095 46.11C148.095 54.56 153.555 57.42 163.24 59.76C171.69 61.71 173.51 63.465 173.51 66.78C173.51 70.29 170.39 72.565 165.45 72.565C159.795 72.565 155.44 70.42 151.085 66.65L146.275 72.37C151.735 77.245 158.3 79.65 165.255 79.65C174.81 79.65 181.505 74.58 181.505 66C181.505 58.395 176.5 54.95 166.88 52.61C158.17 50.53 156.09 48.97 156.09 45.395Z" fill="#414141"/>
<path d="M236.472 56.185C236.472 43.315 226.722 32.72 212.747 32.72C198.772 32.72 188.892 43.445 188.892 56.315C188.892 69.185 198.642 79.78 212.617 79.78C226.592 79.78 236.472 69.055 236.472 56.185ZM228.087 56.315C228.087 65.22 221.782 72.435 212.747 72.435C203.712 72.435 197.277 65.09 197.277 56.185C197.277 47.28 203.582 40.065 212.617 40.065C221.652 40.065 228.087 47.41 228.087 56.315Z" fill="#414141"/>
<path d="M246.132 79H278.047V71.72H254.127V33.5H246.132V79Z" fill="#414141"/>
<path d="M286.831 33.5V79H294.826V33.5H286.831Z" fill="#414141"/>
<path d="M338.791 64.96L314.416 33.5H307.006V79H314.871V46.63L339.961 79H346.656V33.5H338.791V64.96Z" fill="#414141"/>
<path d="M392.223 33.5H358.358V79H366.353V60.475H389.298V53.195H366.353V40.78H392.223V33.5Z" fill="#414141"/>
<path d="M420.254 40.91H434.684V33.5H397.764V40.91H412.194V79H420.254V40.91Z" fill="#414141"/>
<path d="M476.898 33.5H443.163V79H477.223V71.85H451.158V59.63H473.973V52.48H451.158V40.65H476.898V33.5Z" fill="#414141"/>
<path d="M526.293 71.72L521.158 66.52C517.258 70.16 513.683 72.435 508.093 72.435C499.383 72.435 493.078 65.155 493.078 56.185C493.078 47.215 499.383 40.065 508.093 40.065C513.293 40.065 517.193 42.34 520.833 45.72L525.968 39.805C521.613 35.645 516.543 32.72 508.158 32.72C494.378 32.72 484.693 43.315 484.693 56.315C484.693 69.445 494.573 79.78 507.833 79.78C516.348 79.78 521.548 76.66 526.293 71.72Z" fill="#414141"/>
<defs>
<clipPath id="clip0">
<rect width="124.23" height="109.12" fill="white" transform="translate(0.97998)"/>
</clipPath>
</defs>
</svg>
