<?xml version="1.0" encoding="UTF-8" standalone="no"?><!DOCTYPE svg PUBLIC "-//W3C//DTD SVG 1.1//EN" "http://www.w3.org/Graphics/SVG/1.1/DTD/svg11.dtd"><svg width="100%" height="100%" viewBox="0 0 407 1647" version="1.1" xmlns="http://www.w3.org/2000/svg" xmlns:xlink="http://www.w3.org/1999/xlink" xml:space="preserve" xmlns:serif="http://www.serif.com/" style="fill-rule:evenodd;clip-rule:evenodd;stroke-linejoin:round;stroke-miterlimit:1.41421;"><clipPath id="_clip1"><rect x="0.54" y="0.787" width="406.025" height="1645.31"/></clipPath><g clip-path="url(#_clip1)"><g id="Tower_1"><g id="Left_Tower"><path d="M159.123,1641.71l-94.711,0l0,-1276.36c0,0 -41.928,-21.71 -41.928,-57.347c41.928,-0.176 76.804,-0.176 147.026,0c0,33.647 -48.19,57.376 -48.19,57.376l-4.33,689.603c-1.404,226.142 42.63,236.967 42.133,586.728Z" style="fill:#fff;fill-rule:nonzero;"/><clipPath id="_clip2"><path d="M159.123,1641.71l-94.711,0l0,-1276.36c0,0 -41.928,-21.71 -41.928,-57.347c41.928,-0.176 76.804,-0.176 147.026,0c0,33.647 -48.19,57.376 -48.19,57.376l-4.33,689.603c-1.404,226.142 42.63,236.967 42.133,586.728Z"/></clipPath><g clip-path="url(#_clip2)"><path d="M137.179,1641.71l-94.711,0l0,-1276.36c0,0 -41.928,-21.71 -41.928,-57.347c41.928,-0.176 76.804,-0.176 147.026,0c-0.176,33.618 -48.19,48.599 -48.19,48.599c0,0 0,8.777 -4.33,698.409c-1.404,226.113 42.63,236.938 42.133,586.699Z" style="fill:#9a6aad;fill-rule:nonzero;"/></g><path d="M64.412,473.815l0,-108.463c0,0 -41.928,-21.71 -41.928,-57.347c41.928,-0.176 76.804,-0.176 147.026,0c0,33.647 -48.19,57.376 -48.19,57.376c0,0 0,5.589 -1.141,205.515" style="fill:none;stroke:#8a58a4;stroke-width:10.24px;"/><path d="M64.412,796.891l0,-173.359" style="fill-rule:nonzero;"/><path d="M117.926,904.886c-0.321,44.268 -0.614,99.275 -0.936,150.098c-1.404,226.142 42.63,236.997 42.133,586.728l-94.711,0l0,-513.903" style="fill:none;stroke:#8a58a4;stroke-width:10.24px;"/><path d="M120.179,623.532c-0.38,58.986 -1.199,138.658 -1.902,228.688" style="fill-rule:nonzero;"/></g><g id="Right_Tower"><path d="M265.537,1641.71l94.711,0l0,-1429.97c0,0 41.928,-21.71 41.928,-57.377c-41.928,-0.175 -76.804,-0.175 -147.025,0c-0.059,33.677 48.16,57.377 48.16,57.377c0,0 0,36.574 4.359,726.205c1.405,226.142 -42.133,267.573 -42.133,703.764Z" style="fill:#fff;fill-rule:nonzero;"/><clipPath id="_clip3"><path d="M265.537,1641.71l94.711,0l0,-1429.97c0,0 41.928,-21.71 41.928,-57.377c-41.928,-0.175 -76.804,-0.175 -147.025,0c-0.059,33.677 48.16,57.377 48.16,57.377c0,0 0,36.574 4.359,726.205c1.405,226.142 -42.133,267.573 -42.133,703.764Z"/></clipPath><g clip-path="url(#_clip3)"><path d="M243.593,1641.71l94.711,0l0,-1437.28c0,0 41.928,-14.395 41.928,-50.062c-41.928,-0.175 -76.804,-0.175 -147.026,0c0,33.677 48.219,57.377 48.219,57.377c0,0 0,36.574 4.36,726.205c1.492,226.142 -42.192,267.573 -42.192,703.764Z" style="fill:#9a6aad;fill-rule:nonzero;"/></g><path d="M307.582,967.032c-2.282,201.506 -42.045,257.858 -42.045,674.68l94.711,0l0,-1429.97c0,0 41.928,-21.71 41.928,-57.377c-41.928,-0.175 -76.804,-0.175 -147.025,0c-0.059,33.677 48.16,57.377 48.16,57.377c0,0 0,2.312 0,16.736" style="fill:none;stroke:#8a58a4;stroke-width:10.24px;"/><path d="M306.207,706.511c0.381,58.869 0.79,124.701 1.229,198.375" style="fill-rule:nonzero;stroke:#8a58a4;stroke-width:10.24px;"/><path d="M305.008,509.364c0.204,34.058 0.439,71.948 0.702,114.11" style="fill-rule:nonzero;stroke:#8a58a4;stroke-width:10.24px;"/><path d="M303.691,284.1c0,24.051 0.322,56.002 0.556,98.427" style="fill-rule:nonzero;stroke:#8a58a4;stroke-width:10.24px;"/></g><rect x="97.796" y="582.98" width="66.184" height="28.674" style="fill:#9a6aad;"/><g id="Top_Walk"><rect x="98.235" y="570.866" width="184.36" height="52.666" style="fill:#9a6aad;"/><path d="M200.378,623.532l-18.199,0l-18.228,0l-20.277,0l-30.809,0" style="fill:none;stroke:#8a58a4;stroke-width:5.85px;"/><path d="M267.322,570.866l37.188,0l0,52.666l-34.057,0" style="fill:#fff;fill-rule:nonzero;stroke:#8a58a4;stroke-width:5.85px;"/><path d="M169.51,570.866l58.488,0" style="fill:none;stroke:#8a58a4;stroke-width:5.85px;"/><path d="M112.865,570.866l24.782,0" style="fill:none;stroke:#8a58a4;stroke-width:5.85px;"/></g><g id="Bottom_Rect"><rect x="120.179" y="852.22" width="184.36" height="52.666" style="fill:none;stroke:#9a6aad;stroke-width:2.93px;"/><rect x="98.235" y="852.22" width="184.36" height="52.666" style="fill:#9a6aad;"/><path d="M200.115,904.886l-90.235,0" style="fill-rule:nonzero;stroke:#8a58a4;stroke-width:5.85px;"/><path d="M248.743,904.886l-19.282,0" style="fill-rule:nonzero;stroke:#8a58a4;stroke-width:5.85px;"/><path d="M240.316,852.22l63.463,0l0,52.666l-29.815,0" style="fill:#fff;fill-rule:nonzero;stroke:#8a58a4;stroke-width:5.85px;"/><path d="M110.231,852.22l46.405,0" style="fill-rule:nonzero;stroke:#8a58a4;stroke-width:5.85px;"/></g><g id="Wind_Turbine"><path d="M60.813,250.043l0,57.962c0,2.006 1.651,3.657 3.657,3.657c2.007,0 3.658,-1.651 3.658,-3.657l0,-57.962c0,-2.006 -1.651,-3.657 -3.658,-3.657c-2.006,0 -3.657,1.651 -3.657,3.657Z" style="fill:#8a58a4;fill-rule:nonzero;"/><circle cx="64.47" cy="240.856" r="7.666" style="fill:#8a58a4;"/><path d="M68.479,240.856c-0.177,2.062 -1.924,3.666 -3.994,3.666c-2.07,0 -3.817,-1.604 -3.994,-3.666c0.177,-2.063 1.924,-3.667 3.994,-3.667c2.07,0 3.817,1.604 3.994,3.667c0.263,4.681 7.578,4.71 7.315,0c0,-0.018 0,-0.035 0,-0.052c0,-6.212 -5.112,-11.324 -11.323,-11.324c-6.212,0 -11.324,5.112 -11.324,11.324c0,6.068 4.878,11.112 10.943,11.316c6.298,0.114 11.576,-4.967 11.704,-11.264c0.263,-4.711 -7.052,-4.711 -7.315,0Z" style="fill:#8a58a4;fill-rule:nonzero;"/><path d="M62.598,232.254c-11.85,-8.778 -11.06,-43.391 -11.06,-43.391c0,0 17.204,29.931 11.06,43.391Z" style="fill:#8a58a4;fill-rule:nonzero;"/><path d="M65.173,229.679c-10.241,-8.778 -10.212,-28.411 -9.978,-40.963l-6.817,1.844c6.144,10.767 15.507,28.059 10.68,40.582c-1.697,4.389 5.383,6.29 7.051,1.931c5.618,-14.63 -4.272,-33.706 -11.411,-46.229c-0.672,-1.082 -1.858,-1.741 -3.131,-1.741c-1.995,0 -3.647,1.619 -3.686,3.613c-0.264,14.308 0.263,35.989 12.113,45.995c3.569,3.072 8.777,-1.989 5.179,-5.032Z" style="fill:#8a58a4;fill-rule:nonzero;"/><path d="M73.453,243.957c13.635,-5.852 43.127,12.143 43.127,12.143c0,0 -34.525,-0.088 -43.127,-12.143Z" style="fill:#8a58a4;fill-rule:nonzero;"/><path d="M74.448,247.497c12.61,-4.535 29.668,5.355 40.289,11.704l1.843,-6.788c-12.405,0 -32.184,-0.615 -40.523,-11.06c-2.955,-3.57 -8.222,1.551 -5.296,5.208c9.685,12.113 31.395,13.137 45.702,13.225c1.984,-0.054 3.586,-1.701 3.586,-3.685c0,-1.274 -0.66,-2.46 -1.742,-3.132c-12.318,-7.432 -31.307,-17.76 -45.937,-12.523c-4.271,1.551 -2.37,8.631 2.078,7.051Z" style="fill:#8a58a4;fill-rule:nonzero;"/><path d="M58.619,247.731c-14.63,1.405 -32.185,31.278 -32.185,31.278c0,0 30.429,-16.59 32.185,-31.278Z" style="fill:#8a58a4;fill-rule:nonzero;"/><path d="M57.653,244.191c-15.215,2.165 -27.123,20.774 -34.262,32.975c-0.297,0.542 -0.452,1.15 -0.452,1.768c0,2.023 1.664,3.687 3.687,3.687c0.618,0 1.226,-0.155 1.768,-0.452c12.406,-6.846 31.219,-18.287 33.765,-33.472c0.761,-4.594 -6.291,-6.583 -7.051,-1.931c-1.463,8.778 -10.095,15.302 -16.736,20.247c-4.363,3.215 -8.927,6.147 -13.664,8.778l5.091,5.062c6.203,-10.651 16.619,-27.738 29.873,-29.581c4.564,-0.673 2.604,-7.637 -2.019,-7.081Z" style="fill:#8a58a4;fill-rule:nonzero;"/></g><g id="Wind_Turbine-2"><path d="M117.575,218.941l0,89.064c0,2.006 1.651,3.657 3.658,3.657c2.006,0 3.657,-1.651 3.657,-3.657l0,-89.064c0,-2.007 -1.651,-3.658 -3.657,-3.658c-2.007,0 -3.658,1.651 -3.658,3.658Z" style="fill:#8a58a4;fill-rule:nonzero;"/><circle cx="121.233" cy="209.753" r="7.666" style="fill:#8a58a4;"/><path d="M125.212,209.753c-0.177,2.063 -1.924,3.667 -3.994,3.667c-2.07,0 -3.817,-1.604 -3.994,-3.667c0.177,-2.062 1.924,-3.666 3.994,-3.666c2.07,0 3.817,1.604 3.994,3.666c0.263,4.682 7.578,4.711 7.315,0c0,-0.007 0,-0.015 0,-0.022c0,-6.212 -5.112,-11.324 -11.324,-11.324c-6.211,0 -11.323,5.112 -11.323,11.324c0,6.068 4.878,11.113 10.943,11.316c0.069,0.002 0.138,0.002 0.207,0.002c6.231,0 11.387,-5.065 11.497,-11.296c0.263,-4.71 -7.052,-4.681 -7.315,0Z" style="fill:#8a58a4;fill-rule:nonzero;"/><path d="M127.436,201.883c-0.615,-14.776 26.625,-35.989 26.625,-35.989c0,0 -12.318,32.244 -26.625,35.989Z" style="fill:#8a58a4;fill-rule:nonzero;"/><path d="M131.093,201.883c0,-13.196 15.975,-25.894 25.543,-33.414l-6.086,-3.569c-4.272,11.03 -11.85,29.61 -24.197,33.472c-4.447,1.404 -2.546,8.456 1.96,7.051c15.244,-4.798 23.905,-24.841 29.259,-38.563c1.463,-3.833 -3.628,-5.53 -6.115,-3.57c-11.352,8.778 -27.562,22.998 -27.708,38.593c0,2.014 1.658,3.672 3.672,3.672c2.014,0 3.672,-1.658 3.672,-3.672Z" style="fill:#8a58a4;fill-rule:nonzero;"/><path d="M125.241,217.712c13.108,6.876 17.877,40.962 17.877,40.962c0,0 -21.798,-26.742 -17.877,-40.962Z" style="fill:#8a58a4;fill-rule:nonzero;"/><path d="M123.427,220.872c11.323,6.729 14.454,26.801 16.18,38.885l6.115,-3.57c-7.431,-9.187 -19.603,-24.987 -16.911,-37.51c0.965,-4.593 -6.086,-6.554 -7.052,-1.931c-3.364,15.712 9.451,33.063 18.785,44.62c2.604,3.219 6.553,-0.439 6.115,-3.54c-2.019,-14.279 -6.115,-35.286 -19.545,-43.274c-0.56,-0.326 -1.196,-0.498 -1.844,-0.498c-2.007,0 -3.658,1.651 -3.658,3.658c0,1.299 0.693,2.505 1.815,3.16Z" style="fill:#8a58a4;fill-rule:nonzero;"/><path d="M112.923,208.525c-10.387,-10.446 -44.503,-4.974 -44.503,-4.974c0,0 32.01,12.991 44.503,4.974Z" style="fill:#8a58a4;fill-rule:nonzero;"/><path d="M115.527,206.038c-11.967,-10.768 -33.384,-8.31 -48.072,-6.028c-3.979,0.644 -2.926,5.852 0,7.052c13.488,5.442 33.56,12.288 47.311,4.71c4.126,-2.282 0.439,-8.602 -3.686,-6.32c-11.704,6.379 -30.312,-0.877 -41.665,-5.442l0,7.052c11.704,-1.814 31.395,-4.448 40.963,4.125c3.452,3.189 8.66,-2.019 5.149,-5.149Z" style="fill:#8a58a4;fill-rule:nonzero;"/></g><g id="Wind_Turbine-3"><path d="M299.185,96.434l0,57.815c0,2.007 1.651,3.658 3.657,3.658c2.007,0 3.658,-1.651 3.658,-3.658l0,-57.815c0,-2.007 -1.651,-3.658 -3.658,-3.658c-2.006,0 -3.657,1.651 -3.657,3.658Z" style="fill:#8a58a4;fill-rule:nonzero;"/><circle cx="302.842" cy="87.247" r="7.666" style="fill:#8a58a4;"/><path d="M306.822,87.247c-0.177,2.062 -1.924,3.666 -3.994,3.666c-2.07,0 -3.817,-1.604 -3.994,-3.666c0.177,-2.063 1.924,-3.667 3.994,-3.667c2.07,0 3.817,1.604 3.994,3.667c0.263,4.681 7.578,4.71 7.314,0c0,-0.018 0.001,-0.035 0.001,-0.053c0,-6.211 -5.112,-11.323 -11.324,-11.323c-6.211,0 -11.323,5.112 -11.323,11.323c0,6.069 4.878,11.113 10.943,11.317c6.297,0.114 11.576,-4.967 11.703,-11.264c0.264,-4.711 -7.051,-4.711 -7.314,0Z" style="fill:#8a58a4;fill-rule:nonzero;"/><path d="M296.288,81.629c-14.307,-3.892 -26.332,-36.252 -26.332,-36.252c0,0 27.093,21.476 26.332,36.252Z" style="fill:#8a58a4;fill-rule:nonzero;"/><path d="M297.254,78.118c-12.201,-3.979 -19.574,-22.647 -23.729,-33.736l-6.115,3.57c9.509,7.607 25.221,20.481 25.221,33.677c0,2.006 1.651,3.657 3.657,3.657c2.007,0 3.658,-1.651 3.658,-3.657c0,-15.595 -16.122,-29.873 -27.357,-38.856c-2.516,-1.99 -7.549,-0.263 -6.115,3.57c5.149,13.781 13.634,33.852 28.82,38.826c4.506,1.463 6.407,-5.588 1.96,-7.051Z" style="fill:#8a58a4;fill-rule:nonzero;"/><path d="M310.684,88.563c10.504,-10.445 44.532,-4.623 44.532,-4.623c0,0 -32.097,12.611 -44.532,4.623Z" style="fill:#8a58a4;fill-rule:nonzero;"/><path d="M313.288,91.079c9.655,-8.455 29.259,-5.617 40.962,-3.657l0,-7.081c-11.411,4.477 -30.195,11.499 -41.723,5.004c-0.559,-0.327 -1.195,-0.499 -1.843,-0.499c-2.007,0 -3.658,1.652 -3.658,3.659c0,1.299 0.692,2.505 1.815,3.16c13.663,7.724 33.794,1.024 47.37,-4.243c2.926,-1.17 3.95,-6.408 0,-7.081c-14.63,-2.428 -36.018,-5.061 -48.131,5.56c-3.511,3.13 1.697,8.28 5.208,5.178Z" style="fill:#8a58a4;fill-rule:nonzero;"/><path d="M298.307,97.487c-13.195,6.73 -18.286,40.963 -18.286,40.963c0,0 22.061,-26.655 18.286,-40.963Z" style="fill:#8a58a4;fill-rule:nonzero;"/><path d="M296.464,94.415c-13.488,7.841 -17.789,28.849 -19.955,43.069c-0.497,3.16 3.512,6.73 6.116,3.57c9.45,-11.528 22.412,-28.791 19.281,-44.532c-0.936,-4.623 -7.987,-2.663 -7.051,1.931c2.575,12.552 -9.802,28.205 -17.321,37.334l6.115,3.57c1.843,-12.084 5.178,-32.185 16.589,-38.71c0.938,-0.688 1.494,-1.785 1.494,-2.948c0,-2.007 -1.651,-3.658 -3.658,-3.658c-0.558,0 -1.109,0.128 -1.61,0.374Z" style="fill:#8a58a4;fill-rule:nonzero;"/></g><g id="Wind_Turbine-4"><path d="M355.918,65.332l0,88.917c0,2.007 1.651,3.658 3.657,3.658c2.007,0 3.658,-1.651 3.658,-3.658l0,-88.917c0,-2.007 -1.651,-3.658 -3.658,-3.658c-2.006,0 -3.657,1.651 -3.657,3.658Z" style="fill:#8a58a4;fill-rule:nonzero;"/><circle cx="359.575" cy="56.144" r="7.666" style="fill:#8a58a4;"/><path d="M363.584,56.144c0,2.199 -1.81,4.009 -4.009,4.009c-2.199,0 -4.008,-1.81 -4.008,-4.009c0,-2.199 1.809,-4.008 4.008,-4.008c2.199,0 4.009,1.809 4.009,4.008c0.234,4.682 7.549,4.711 7.315,0c0,-0.007 0,-0.015 0,-0.023c0,-6.211 -5.112,-11.323 -11.324,-11.323c-6.211,0 -11.323,5.112 -11.323,11.323c0,6.069 4.878,11.113 10.943,11.317c6.303,0.098 11.576,-4.992 11.704,-11.294c0.234,-4.71 -7.081,-4.681 -7.315,0Z" style="fill:#8a58a4;fill-rule:nonzero;"/><path d="M363.584,47.162c-5.501,-13.752 13.137,-42.835 13.137,-42.835c0,0 -0.878,34.496 -13.137,42.835Z" style="fill:#8a58a4;fill-rule:nonzero;"/><path d="M367.095,46.196c-4.213,-12.698 6.174,-29.58 12.786,-39.997l-6.817,-1.872c-0.322,11.703 -1.2,31.98 -11.323,39.675c-3.716,2.926 0,9.158 3.686,6.32c12.816,-9.773 14.63,-31.044 14.952,-45.995c-0.055,-1.984 -1.702,-3.586 -3.686,-3.586c-1.273,0 -2.46,0.661 -3.132,1.743c-7.724,12.171 -18.404,30.868 -13.517,45.643c1.492,4.448 8.543,2.546 7.051,-1.931Z" style="fill:#8a58a4;fill-rule:nonzero;"/><path d="M366.773,62.815c14.63,2.107 30.517,32.8 30.517,32.8c0,0 -29.464,-18.053 -30.517,-32.8Z" style="fill:#8a58a4;fill-rule:nonzero;"/><path d="M365.808,66.326c13.078,2.517 22.646,20.218 28.322,31.132l5.003,-5.003c-4.539,-2.821 -8.879,-5.949 -12.99,-9.363c-5.852,-4.945 -14.63,-11.996 -15.713,-20.277c-0.526,-4.623 -7.841,-4.681 -7.314,0c1.902,15.917 19.691,28.177 32.185,35.93c3.247,2.019 6.612,-1.872 5.003,-5.003c-6.554,-12.581 -17.556,-31.57 -32.682,-34.467c-4.477,-0.878 -6.437,6.174 -1.814,7.051Z" style="fill:#8a58a4;fill-rule:nonzero;"/><path d="M352.144,58.31c-13.313,-6.467 -43.655,10.006 -43.655,10.006c0,0 34.38,1.639 43.655,-10.006Z" style="fill:#8a58a4;fill-rule:nonzero;"/><path d="M353.109,54.769c-14.395,-5.852 -33.794,3.57 -46.463,10.387c-1.082,0.672 -1.742,1.859 -1.742,3.132c0,1.984 1.602,3.631 3.585,3.685c14.337,0.644 35.96,0.556 46.259,-11.089c3.101,-3.511 -2.048,-8.777 -5.179,-5.149c-8.778,10.006 -28.703,9.48 -40.963,8.777l1.844,6.818c10.943,-5.852 28.439,-14.63 40.962,-9.626c4.126,1.931 6.086,-5.15 1.697,-6.935Z" style="fill:#8a58a4;fill-rule:nonzero;"/></g><rect x="83.167" y="864.596" width="66.184" height="28.674" style="fill:#9a6aad;"/><path d="M128.957,589.563l151.415,0c4.269,0 7.783,3.513 7.783,7.783c0,4.269 -3.514,7.783 -7.783,7.783l-151.415,0l0,-15.566Z" style="fill:#fff;fill-rule:nonzero;stroke:#9a6aad;stroke-width:5.85px;"/><path d="M130.42,870.448l151.415,0c4.269,0 7.782,3.513 7.782,7.783c0,4.27 -3.513,7.783 -7.782,7.783l-151.415,0l0,-15.566Z" style="fill:#fff;fill-rule:nonzero;stroke:#9a6aad;stroke-width:5.85px;"/><path d="M76.642,732.99l0,-346.542c0,-3.114 2.562,-5.676 5.676,-5.676c3.114,0 5.677,2.562 5.677,5.676l0,346.542l-11.382,0l0.029,0Z" style="fill:#fff;fill-rule:nonzero;stroke:#8a58a4;stroke-width:5.85px;"/><path d="M76.642,749.492l0,42.133l11.382,0l0,-42.133l-11.382,0Z" style="fill:#fff;stroke:#8a58a4;stroke-width:5.85px;"/><circle cx="84.747" cy="1226.18" r="10.065" style="fill:#fff;stroke:#8a58a4;stroke-width:5.85px;"/><circle cx="84.747" cy="1258.16" r="10.065" style="fill:#fff;stroke:#8a58a4;stroke-width:5.85px;"/><circle cx="84.747" cy="1193.58" r="10.065" style="fill:#fff;stroke:#8a58a4;stroke-width:5.85px;"/><path d="M317.296,576.484l0,-346.571c0,-3.114 2.563,-5.676 5.677,-5.676c3.113,0 5.676,2.562 5.676,5.676l0,346.571l-11.382,0l0.029,0Z" style="fill:#fff;fill-rule:nonzero;stroke:#8a58a4;stroke-width:5.85px;"/><path d="M317.296,592.957l0,42.133l11.382,0l0,-42.133l-11.382,0Z" style="fill:#fff;stroke:#8a58a4;stroke-width:5.85px;"/><path d="M329.058,650.217l0,220.173c0,3.113 -2.562,5.676 -5.676,5.676c-0.01,0 -0.019,0 -0.029,0c-3.114,0 -5.676,-2.562 -5.676,-5.676c0,0 0,0 0,0l0,-220.173l11.381,0Z" style="fill:#fff;fill-rule:nonzero;stroke:#8a58a4;stroke-width:5.85px;"/><circle cx="321.012" cy="1144.98" r="10.065" style="fill:#fff;stroke:#8a58a4;stroke-width:5.85px;"/><circle cx="321.012" cy="1176.96" r="10.065" style="fill:#fff;stroke:#8a58a4;stroke-width:5.85px;"/><circle cx="321.012" cy="1112.39" r="10.065" style="fill:#fff;stroke:#8a58a4;stroke-width:5.85px;"/></g></g></svg>