<svg width="30" height="25" viewBox="0 0 30 25" fill="none" xmlns="http://www.w3.org/2000/svg">
<path d="M26.8945 6.65625C28.0664 5.77734 29.1211 4.72266 29.9414 3.49219C28.8867 3.96094 27.6562 4.3125 26.4258 4.42969C27.7148 3.66797 28.6523 2.49609 29.1211 1.03125C27.9492 1.73438 26.6016 2.26172 25.2539 2.55469C24.082 1.32422 22.5 0.621094 20.7422 0.621094C17.3438 0.621094 14.5898 3.375 14.5898 6.77344C14.5898 7.24219 14.6484 7.71094 14.7656 8.17969C9.66797 7.88672 5.09766 5.42578 2.05078 1.73438C1.52344 2.61328 1.23047 3.66797 1.23047 4.83984C1.23047 6.94922 2.28516 8.82422 3.98438 9.9375C2.98828 9.87891 1.99219 9.64453 1.17188 9.17578V9.23438C1.17188 12.2227 3.28125 14.6836 6.09375 15.2695C5.625 15.3867 5.03906 15.5039 4.51172 15.5039C4.10156 15.5039 3.75 15.4453 3.33984 15.3867C4.10156 17.8477 6.38672 19.6055 9.08203 19.6641C6.97266 21.3047 4.33594 22.3008 1.46484 22.3008C0.9375 22.3008 0.46875 22.2422 0 22.1836C2.69531 23.9414 5.91797 24.9375 9.43359 24.9375C20.7422 24.9375 26.8945 15.6211 26.8945 7.47656C26.8945 7.18359 26.8945 6.94922 26.8945 6.65625Z" fill="black"/>
</svg>
