<?xml version="1.0" encoding="UTF-8" standalone="no"?><!DOCTYPE svg PUBLIC "-//W3C//DTD SVG 1.1//EN" "http://www.w3.org/Graphics/SVG/1.1/DTD/svg11.dtd"><svg width="100%" height="100%" viewBox="0 0 7534 513" version="1.1" xmlns="http://www.w3.org/2000/svg" xmlns:xlink="http://www.w3.org/1999/xlink" xml:space="preserve" xmlns:serif="http://www.serif.com/" style="fill-rule:evenodd;clip-rule:evenodd;stroke-linejoin:round;stroke-miterlimit:1.41421;"><g id="White-Clouds" serif:id="White Clouds"><path d="M7532,448.943c0,-13.246 2.557,-249.54 0,-262.028c-17.896,-87.439 -95.263,-153.215 -187.992,-153.215c-52.469,0 -99.994,21.069 -134.632,55.191c-22.323,-12.316 -47.971,-19.347 -75.27,-19.347c-33.24,0 -64.036,10.432 -89.352,28.148c-28.433,-29.961 -68.604,-48.682 -113.173,-48.682c-48.891,0 -92.511,22.498 -121.12,57.692c-25.435,-14.143 -54.703,-22.233 -85.869,-22.233c-63.798,0 -119.692,33.771 -150.834,84.403c-15.002,-43.458 -56.24,-74.686 -104.799,-74.686c-28.22,0 -53.968,10.556 -73.538,27.921c-31.831,-71.702 -103.614,-121.737 -187.12,-121.737c-78.411,0 -146.493,44.114 -180.866,108.86c-19.727,-14.389 -44.004,-22.901 -70.284,-22.901c-41.803,0 -78.562,21.497 -99.898,54.015c-28.751,-33.068 -71.095,-54.015 -118.359,-54.015c-47.818,0 -90.608,21.435 -119.374,55.182c-15.903,-47.263 -60.548,-81.319 -113.173,-81.319c-49.451,0 -91.885,30.061 -110.018,72.903c-28.718,-29.572 -68.869,-47.966 -113.344,-47.966c-39.354,0 -75.317,14.418 -102.982,38.216c-33.543,-38.667 -83.003,-63.153 -138.209,-63.153c-63.153,0 -118.833,31.997 -151.707,80.665l0,308.086l2641.91,0Z" style="fill:#f8f8f8;fill-rule:nonzero;"/><path d="M4938,483.674c0,-13.246 2.557,-249.541 0,-262.028c-17.896,-87.439 -95.263,-153.216 -187.992,-153.216c-52.469,0 -99.994,21.07 -134.632,55.192c-22.323,-12.316 -47.971,-19.348 -75.27,-19.348c-33.24,0 -64.036,10.433 -89.352,28.149c-28.433,-29.961 -68.604,-48.682 -113.173,-48.682c-48.891,0 -92.511,22.498 -121.12,57.692c-25.435,-14.144 -54.703,-22.233 -85.869,-22.233c-63.798,0 -119.692,33.771 -150.834,84.403c-15.002,-43.459 -56.24,-74.686 -104.799,-74.686c-28.22,0 -53.968,10.556 -73.538,27.921c-31.831,-71.703 -103.614,-121.737 -187.12,-121.737c-78.411,0 -146.493,44.113 -180.866,108.86c-19.727,-14.389 -44.004,-22.901 -70.284,-22.901c-41.803,0 -78.562,21.497 -99.898,54.015c-28.751,-33.068 -71.095,-54.015 -118.359,-54.015c-47.818,0 -90.608,21.435 -119.374,55.182c-15.903,-47.264 -60.548,-81.319 -113.173,-81.319c-49.451,0 -91.885,30.061 -110.018,72.903c-28.718,-29.572 -68.869,-47.966 -113.344,-47.966c-39.354,0 -75.317,14.418 -102.982,38.216c-33.543,-38.667 -83.003,-63.153 -138.209,-63.153c-63.153,0 -118.833,31.996 -151.707,80.665l0,308.086l2641.91,0Z" style="fill:#f8f8f8;fill-rule:nonzero;"/><path d="M2642,512.674c0,0 2.557,-249.541 0,-262.028c-17.896,-87.439 -95.263,-153.216 -187.992,-153.216c-52.469,0 -99.994,21.07 -134.632,55.192c-22.323,-12.316 -47.971,-19.348 -75.27,-19.348c-33.24,0 -64.036,10.433 -89.352,28.149c-28.433,-29.961 -68.604,-48.682 -113.173,-48.682c-48.891,0 -92.511,22.498 -121.12,57.692c-25.435,-14.144 -54.703,-22.233 -85.869,-22.233c-63.798,0 -119.692,33.771 -150.834,84.403c-15.002,-43.459 -56.24,-74.686 -104.799,-74.686c-28.22,0 -53.968,10.556 -73.538,27.921c-31.831,-71.703 -103.614,-121.737 -187.12,-121.737c-78.411,0 -146.493,44.113 -180.866,108.86c-19.727,-14.389 -44.004,-22.901 -70.284,-22.901c-41.803,0 -78.562,21.497 -99.898,54.015c-28.751,-33.068 -71.095,-54.015 -118.359,-54.015c-47.818,0 -90.608,21.435 -119.374,55.182c-15.903,-47.264 -60.548,-81.319 -113.173,-81.319c-49.451,0 -91.885,30.061 -110.018,72.903c-28.718,-29.572 -68.869,-47.966 -113.344,-47.966c-39.354,0 -75.317,14.418 -102.982,38.216c-33.543,-38.667 -83.003,-63.153 -138.209,-63.153c-63.153,0 -118.833,31.996 -151.707,80.665l0,308.086l2641.91,0Z" style="fill:#f8f8f8;fill-rule:nonzero;"/></g></svg>